<?xml version="1.0" standalone="no"?><svg xmlns="http://www.w3.org/2000/svg" viewBox="0 0 1440 320"><path fill="#0099ff" fill-opacity="1" d="M0,128L24,106.7C48,85,96,43,144,48C192,53,240,107,288,112C336,117,384,75,432,69.3C480,64,528,96,576,128C624,160,672,192,720,186.7C768,181,816,139,864,106.7C912,75,960,53,1008,58.7C1056,64,1104,96,1152,96C1200,96,1248,64,1296,48C1344,32,1392,32,1416,32L1440,32L1440,0L1416,0C1392,0,1344,0,1296,0C1248,0,1200,0,1152,0C1104,0,1056,0,1008,0C960,0,912,0,864,0C816,0,768,0,720,0C672,0,624,0,576,0C528,0,480,0,432,0C384,0,336,0,288,0C240,0,192,0,144,0C96,0,48,0,24,0L0,0Z"></path></svg>